<svg id="Capa_1" data-name="Capa 1" xmlns="http://www.w3.org/2000/svg" xmlns:xlink="http://www.w3.org/1999/xlink" viewBox="0 0 968 967.31"><defs><style>.cls-1{fill:url(#Degradado_sin_nombre_9);}</style><linearGradient id="Degradado_sin_nombre_9" x1="890.82" y1="1256.37" x2="880.47" y2="221.01" gradientUnits="userSpaceOnUse"><stop offset="0" stop-color="#009245"/><stop offset="0.27" stop-color="#24a751"/><stop offset="0.58" stop-color="#48bb5c"/><stop offset="0.84" stop-color="#5ec763"/><stop offset="1" stop-color="#6c6"/></linearGradient></defs><title>LOGO databyte</title><path class="cls-1" d="M886.34,1232c-267,2.08-485.88-215.62-484.58-484.07C403.06,477.36,613.51,283.08,849.31,266c297.48-21.53,533.9,223.88,519.85,507C1357,1017.4,1153.85,1232.83,886.34,1232ZM629.89,680.63V817.86H817.51v186.8H955.33V816.74h186.45V680.18H954.26V493.31H817.5c0,55.24.08,109.25,0,163.27-.06,27.16,2.84,23.95-24.64,24C738.88,680.73,684.94,680.63,629.89,680.63Z" transform="translate(-401.75 -264.69)"/></svg>